<?xml version="1.0" standalone="no"?>
<!DOCTYPE svg PUBLIC "-//W3C//DTD SVG 20010904//EN"
 "http://www.w3.org/TR/2001/REC-SVG-20010904/DTD/svg10.dtd">
<svg version="1.0" xmlns="http://www.w3.org/2000/svg"
 width="124.000000pt" height="124.000000pt" viewBox="0 0 124.000000 124.000000"
 preserveAspectRatio="xMidYMid meet">
<metadata>
Created by potrace 1.11, written by Peter Selinger 2001-2013
</metadata>
<g transform="translate(0.000000,124.000000) scale(0.100000,-0.100000)"
fill="#000000" stroke="none">
<path d="M614 1122 c-6 -4 -40 -43 -75 -87 -83 -105 -223 -245 -330 -328 -48
-37 -89 -74 -93 -82 -3 -9 8 -25 30 -42 191 -148 306 -259 408 -395 32 -43 62
-78 66 -78 12 0 43 31 86 85 112 143 262 287 402 384 17 12 32 30 32 40 0 11
-35 44 -87 83 -109 81 -243 214 -340 336 -75 94 -79 97 -99 84z"/>
<path d="M783 222 c-11 -7 -17 -26 -14 -48 2 -18 30 -25 52 -13 25 13 22 55
-3 53 -10 -1 -15 2 -12 7 6 11 -7 12 -23 1z m4 -34 c-3 -8 -6 -5 -6 6 -1 11 2
17 5 13 3 -3 4 -12 1 -19z m43 2 c0 -5 -5 -10 -11 -10 -5 0 -7 5 -4 10 3 6 8
10 11 10 2 0 4 -4 4 -10z"/>
</g>
</svg>
